<?xml version="1.0" standalone="no"?>
<!DOCTYPE svg PUBLIC "-//W3C//DTD SVG 20010904//EN"
 "http://www.w3.org/TR/2001/REC-SVG-20010904/DTD/svg10.dtd">
<svg version="1.0" xmlns="http://www.w3.org/2000/svg"
 width="80pt" height="80pt" viewBox="0 0 512.000000 512.000000"
 preserveAspectRatio="xMidYMid meet">

<g transform="translate(0.000000,512.000000) scale(0.100000,-0.100000)"
fill="#000000" stroke="none">
<path d="M1791 3425 c-500 -57 -564 -66 -650 -95 -60 -19 -285 -126 -596 -283
-478 -241 -501 -254 -522 -292 -41 -73 -37 -86 142 -444 145 -289 170 -333
202 -356 22 -14 52 -25 71 -25 31 0 32 2 25 28 -14 49 -7 223 11 292 49 180
186 350 346 428 115 57 184 73 310 73 159 0 266 -34 397 -127 123 -88 220
-230 260 -384 17 -67 23 -232 10 -282 l-7 -28 770 0 770 0 -7 28 c-4 15 -7 72
-7 127 1 215 104 416 277 539 131 93 238 127 397 127 126 0 195 -16 310 -73
160 -78 297 -248 346 -428 18 -69 25 -243 11 -292 l-7 -28 65 0 c70 0 107 13
141 52 12 12 75 113 140 222 110 185 119 203 119 251 0 31 -7 61 -17 76 -20
31 -383 317 -488 385 -95 62 -225 117 -348 150 -142 38 -301 41 -640 15 l-272
-22 -313 188 c-171 103 -341 198 -377 212 -118 44 -231 40 -869 -34z"/>
<path d="M1025 2516 c-277 -67 -424 -374 -302 -629 46 -97 117 -169 216 -216
74 -35 79 -36 192 -36 112 0 117 1 190 37 383 190 328 735 -86 843 -69 18
-140 18 -210 1z m184 -314 c68 -50 88 -125 52 -192 -56 -107 -210 -107 -263 0
-67 133 93 279 211 192z"/>
<path d="M3885 2516 c-78 -19 -171 -74 -225 -133 -206 -226 -139 -574 138
-711 67 -33 84 -37 171 -40 79 -3 107 0 159 17 192 65 312 231 312 433 0 285
-276 502 -555 434z m170 -306 c141 -68 92 -280 -65 -280 -138 0 -200 162 -98
257 49 46 101 53 163 23z"/>
</g>
</svg>
